<?xml version="1.0" encoding="UTF-8"?>
<svg version="1.1" xmlns="http://www.w3.org/2000/svg" width="1024" height="1024">
<path d="M0 0 C337.92 0 675.84 0 1024 0 C1024 337.92 1024 675.84 1024 1024 C686.08 1024 348.16 1024 0 1024 C0 686.08 0 348.16 0 0 Z " fill="#FEFCFB" transform="translate(0,0)"/>
<path d="M0 0 C1.12936277 -0.00367669 2.25872554 -0.00735338 3.42231143 -0.01114148 C7.19728658 -0.02213258 10.97223417 -0.0260144 14.7472229 -0.02983093 C17.45808138 -0.03557151 20.1689358 -0.04273403 22.87979126 -0.04974365 C31.00712601 -0.0694472 39.13446189 -0.07956649 47.26181453 -0.08847144 C51.097829 -0.09286437 54.9338421 -0.09822855 58.7698555 -0.10346031 C71.53645478 -0.12046647 84.30305323 -0.13495802 97.06966209 -0.14220905 C100.37787248 -0.14411865 103.68608286 -0.14603903 106.99429321 -0.147995 C108.22751117 -0.14872061 108.22751117 -0.14872061 109.48564263 -0.14946087 C122.787595 -0.15775155 136.08945718 -0.18307492 149.39137022 -0.21557567 C163.07616236 -0.24873686 176.7609088 -0.26666597 190.4457413 -0.26985329 C198.11790037 -0.27201003 205.7899279 -0.28063516 213.46204758 -0.30631447 C219.99921405 -0.3281457 226.536217 -0.33601145 233.0734158 -0.32634769 C236.40139243 -0.32183847 239.72876218 -0.32572343 243.05673599 -0.34310913 C260.3483636 -0.42833153 277.70905103 -0.22504445 293.48013306 7.83467102 C294.17155396 8.17425842 294.86297485 8.51384583 295.5753479 8.86372375 C315.65725334 19.08144562 329.97425448 36.72969952 336.96450806 58.07685852 C339.61286025 67.15418161 340.75287444 75.37250527 340.70278931 84.79560852 C340.70178223 85.69384338 340.70077515 86.59207825 340.69973755 87.51753235 C340.69453074 90.85242501 340.68056957 94.18729938 340.66763306 97.52217102 C340.64700806 104.98842102 340.62638306 112.45467102 340.60513306 120.14717102 C325.42513306 120.14717102 310.24513306 120.14717102 294.60513306 120.14717102 C294.35513306 100.83467102 294.35513306 100.83467102 294.30728149 94.81001282 C294.09444447 80.63333404 291.86802978 68.80435535 281.72232056 58.17451477 C271.93496127 49.13560061 261.52010556 46.84208324 248.49378967 46.87301636 C246.8455731 46.86516134 246.8455731 46.86516134 245.16405922 46.85714763 C241.49260595 46.84218029 237.82129245 46.84144319 234.14981079 46.84077454 C231.51289797 46.83315076 228.87599674 46.82477114 226.23908997 46.81555176 C219.08176055 46.79275773 211.92446089 46.78478699 204.7671001 46.77972531 C200.29174597 46.77646136 195.81640039 46.76993462 191.3410511 46.76272392 C178.93216321 46.74316423 166.52328323 46.72675668 154.11437893 46.72384739 C153.32117829 46.72365982 152.52797765 46.72347225 151.71074063 46.723279 C150.10296158 46.72291276 148.49518253 46.72254906 146.88740348 46.72218788 C145.69036639 46.72191367 145.69036639 46.72191367 144.46914673 46.72163391 C143.27063575 46.72136309 143.27063575 46.72136309 142.04791243 46.72108679 C129.11249368 46.7175481 116.17724172 46.69054198 103.24188077 46.65313602 C89.93791018 46.61497439 76.63402218 46.59568933 63.32999569 46.59538788 C55.86973399 46.59480502 48.4096712 46.58642487 40.94946098 46.55739021 C34.59479664 46.53277075 28.24040375 46.52566398 21.88570451 46.54063774 C18.64921288 46.54776433 15.41336254 46.5443657 12.1769104 46.52422714 C-9.51067335 46.39756825 -26.49926072 49.09029685 -42.93783569 64.46748352 C-52.75484108 75.17410624 -59.46511413 88.63369423 -59.55308533 103.31124878 C-59.56776855 105.1762075 -59.56776855 105.1762075 -59.58274841 107.07884216 C-59.58865447 108.45130881 -59.5944648 109.82377587 -59.60018921 111.19624329 C-59.60978014 112.65000682 -59.61979091 114.10376764 -59.63018799 115.55752563 C-59.65729923 119.524998 -59.67832337 123.49248206 -59.69818997 127.45999646 C-59.72030856 131.69256872 -59.74763383 135.92510786 -59.77424622 140.15765381 C-59.81864636 147.34139913 -59.85930186 154.52515803 -59.89755249 161.7089386 C-59.93594531 168.91566672 -59.97735109 176.1223671 -60.02255249 183.32905579 C-60.14343322 202.63734767 -60.24970305 221.94559209 -60.32653236 241.25411415 C-60.36618104 251.12202901 -60.41647452 260.98978748 -60.47879487 270.85758573 C-60.52287316 277.97115013 -60.55548915 285.08471252 -60.57966536 292.19837207 C-60.59422113 296.38093054 -60.6137443 300.56331512 -60.64633369 304.74577522 C-60.67634685 308.61819029 -60.69201624 312.49040173 -60.69678998 316.36292768 C-60.70099372 317.77005986 -60.71030911 319.17718842 -60.72535968 320.5842464 C-60.83353767 331.09899124 -60.32369201 340.34176748 -53.38314819 348.67451477 C-47.64146795 352.92719346 -41.45962605 353.58910477 -34.57064819 353.53535461 C-33.72711288 353.54061157 -32.88357758 353.54586853 -32.01448059 353.55128479 C-29.24525016 353.56440963 -26.47660255 353.55576706 -23.70736694 353.54560852 C-21.76172782 353.54763292 -19.81608943 353.5505474 -17.87045288 353.55430603 C-13.79534674 353.55872053 -9.7204383 353.55233209 -5.64535522 353.5382843 C-0.46572402 353.52128432 4.71343756 353.53098067 9.89305115 353.54900169 C13.91353772 353.55994148 17.93391658 353.5563454 21.95440674 353.54861832 C23.86145078 353.54663957 25.76850513 353.54899219 27.67553711 353.55605698 C64.30194519 353.66188929 97.04902077 340.58560382 123.20014954 314.71340942 C126.57999278 311.33169006 129.93929657 307.93015329 133.29263306 304.52217102 C135.34556085 302.44137982 137.40005305 300.36219346 139.45762634 298.28599548 C140.72614075 297.00547516 141.99198084 295.72229711 143.25447083 294.43583679 C146.12811948 291.5300813 149.0393415 288.74313209 152.15585327 286.09843445 C157.4786418 281.46117231 162.40914031 276.44376143 167.37295532 271.42939758 C168.43327561 270.36223225 169.49385537 269.29532467 170.55467224 268.22865295 C172.82576995 265.94430418 175.09542178 263.65853209 177.3640461 261.37172699 C180.96460804 257.74309752 184.57077887 254.12007694 188.17811584 250.4981842 C189.41867457 249.25248249 190.65922646 248.00677397 191.89977169 246.76105881 C192.52075768 246.13748725 193.14174368 245.5139157 193.78154743 244.87144804 C202.16634436 236.45076851 210.54637439 228.02538913 218.91592407 219.58955383 C224.57822612 213.88249795 230.24783523 208.18280768 235.92554325 202.49107718 C238.91990709 199.48870813 241.91055563 196.48284848 244.89215279 193.46779633 C270.43239309 167.6493995 295.33313446 149.09525726 331.60513306 142.14717102 C332.40325031 141.97035986 333.20136757 141.7935487 334.0236702 141.61137962 C336.63787223 141.14128374 339.04734366 141.01029759 341.70150757 140.99327087 C343.20685562 140.98037018 343.20685562 140.98037018 344.74261475 140.96720886 C345.83258759 140.96294891 346.92256042 140.95868896 348.04556274 140.95429993 C349.20226471 140.94612244 350.35896667 140.93794495 351.55072021 140.92951965 C355.37614428 140.90472016 359.2015314 140.88816452 363.02700806 140.87373352 C364.33509682 140.86840984 365.64318558 140.86308617 366.99091339 140.85760117 C372.48981659 140.83599003 377.98871697 140.81725574 383.48765182 140.80597878 C391.34637313 140.78975132 399.20459925 140.75658337 407.06313396 140.69957793 C412.60133376 140.66078428 418.13940162 140.6413351 423.67773366 140.63605821 C426.97970439 140.63241792 430.28102672 140.61800831 433.58287811 140.58795547 C437.27134204 140.55629571 440.9585608 140.55626926 444.64712524 140.56367493 C445.72900116 140.54726959 446.81087708 140.53086426 447.92553711 140.51396179 C454.89137865 140.57105942 460.02825875 141.82443516 465.60513306 146.14717102 C471.28935042 152.35181159 471.89601124 157.85576603 471.82388306 165.97920227 C471.56455836 169.73477951 470.76423744 172.06273619 468.60513306 175.14717102 C468.04825806 176.01342102 467.49138306 176.87967102 466.91763306 177.77217102 C462.01377769 182.80856302 456.54379909 184.5913901 449.61273193 184.68609619 C448.75654266 184.67792374 447.90035339 184.66975128 447.01821899 184.66133118 C446.09332672 184.66845627 445.16843445 184.67558136 444.21551514 184.68292236 C441.17329242 184.70213424 438.13177102 184.69392991 435.08950806 184.68623352 C432.95166017 184.69615541 430.81382081 184.70810228 428.67599487 184.7219696 C423.04813007 184.75430219 417.42045949 184.76471718 411.79251099 184.76881409 C402.82991288 184.77756693 393.86747463 184.81368981 384.90500641 184.86098862 C381.80577836 184.87336893 378.70676064 184.87283236 375.60751343 184.87071228 C351.33989448 184.79949504 351.33989448 184.79949504 327.85513306 190.20967102 C326.99226685 190.51276184 326.12940063 190.81585266 325.24038696 191.12812805 C312.15741099 195.92094929 300.97168627 202.84311772 290.60513306 212.14717102 C289.91930932 212.75299294 289.23348558 213.35881487 288.52687931 213.98299503 C282.02238515 219.76662879 275.80991373 225.79945441 269.66348267 231.95942688 C268.6096618 233.01188887 267.55562917 234.06413886 266.50140381 235.11619568 C263.6711844 237.94190301 260.84408035 240.77070721 258.01771235 243.60026622 C255.05019488 246.57033441 252.08021696 249.53794067 249.11064148 252.50595093 C244.13540973 257.47937113 239.16227339 262.45487929 234.19033813 267.43159485 C228.440102 273.18729564 222.68624004 278.93935294 216.93052858 284.689578 C211.97819419 289.63738082 207.02780293 294.58712146 202.0790444 299.53850085 C199.12745535 302.49164935 196.17519355 305.44411679 193.22117424 308.39483452 C190.45194327 311.16118535 187.68515371 313.92995464 184.92026138 316.70064163 C183.90402282 317.71820599 182.88692577 318.73491377 181.86892509 319.75071526 C180.48372148 321.13320098 179.10187811 322.51905116 177.7202301 323.90509033 C176.94508529 324.68061217 176.16994047 325.45613401 175.37130642 326.25515652 C173.54374297 328.03376323 173.54374297 328.03376323 172.60513306 330.14717102 C171.94513306 330.14717102 171.28513306 330.14717102 170.60513306 330.14717102 C170.60513306 330.80717102 170.60513306 331.46717102 170.60513306 332.14717102 C169.22578596 333.33405108 167.84229303 334.51826882 166.40591431 335.63545227 C162.82568237 338.6409832 159.66162932 342.08615042 156.43325806 345.45967102 C133.05326444 369.70096361 104.32250567 386.85232081 71.60513306 395.14717102 C70.36247681 395.46299133 69.11982056 395.77881165 67.83950806 396.10420227 C52.63007574 399.6287625 37.4813163 400.4499928 21.93716431 400.37763977 C20.20138076 400.37644246 18.46559656 400.37599597 16.72981262 400.37625122 C13.12383866 400.37470265 9.51796625 400.36653872 5.91201782 400.35298157 C1.33007766 400.33595591 -3.25175209 400.33216946 -7.83372021 400.33292675 C-11.40715047 400.33265269 -14.98055744 400.32713462 -18.55397987 400.31992531 C-20.24217873 400.31678341 -21.93038016 400.31478195 -23.61858177 400.3140316 C-47.94084634 400.29136054 -70.64404721 399.07551889 -88.83627319 380.90498352 C-92.25748306 377.21738937 -95.0062662 373.56910594 -97.39486694 369.14717102 C-98.06775757 367.93867493 -98.06775757 367.93867493 -98.75424194 366.70576477 C-106.51330633 351.39302299 -105.83451669 334.37199358 -105.79891968 317.66719055 C-105.80463246 315.23100981 -105.8116002 312.79483175 -105.81971741 310.35865784 C-105.83571652 304.46457893 -105.83776999 298.57059874 -105.8325045 292.67650975 C-105.82843968 287.87917118 -105.82993357 283.08186393 -105.83525276 278.28452682 C-105.83600118 277.59805137 -105.83674961 276.91157591 -105.83752071 276.20429816 C-105.83905241 274.80909586 -105.84059076 273.41389357 -105.84213568 272.01869129 C-105.85581834 258.97693855 -105.85045288 245.93524603 -105.83895046 232.89349471 C-105.82902186 221.00173698 -105.84195982 209.11013494 -105.86588465 197.21840121 C-105.89035508 184.96167714 -105.89986415 172.70502533 -105.89323193 160.44827735 C-105.88975736 153.58555501 -105.89185413 146.72295223 -105.90948296 139.86024857 C-105.92586508 133.40368183 -105.92090058 126.94733784 -105.90217781 120.49077606 C-105.89851589 118.13431476 -105.90152954 115.77783114 -105.9120636 113.42139053 C-106.03703488 83.13094161 -99.10148724 55.19337473 -77.35971069 33.07685852 C-76.37363535 32.09806867 -75.38547411 31.12137408 -74.39486694 30.14717102 C-73.57115601 29.32474915 -72.74744507 28.50232727 -71.89877319 27.65498352 C-52.31555391 9.0686112 -26.72921615 -0.00471069 0 0 Z " fill="#E6742C" transform="translate(369.3948669433594,238.8528289794922)"/>
<path d="M0 0 C1.36708198 -0.00645601 2.73416269 -0.01318623 4.10124207 -0.02017212 C6.93561 -0.03200664 9.76985723 -0.0358666 12.60424805 -0.03466797 C16.20941852 -0.03446354 19.81381181 -0.06195435 23.41879749 -0.09621239 C26.23033626 -0.1185784 29.04168915 -0.12250286 31.85330772 -0.12144852 C33.81956725 -0.12490262 35.78576883 -0.14646331 37.75190735 -0.16854858 C46.26233848 -0.12534645 53.74439692 0.82052223 60.54296875 6.30078125 C65.3679372 12.39230391 67.66146618 16.73055239 67.484375 24.640625 C66.64423012 30.6169133 63.75915042 36.18657537 59.29296875 40.2734375 C51.10204826 45.57344488 43.98167657 45.76521465 34.4375 45.7421875 C32.43231025 45.75875136 30.4271205 45.77533206 28.4219389 45.79285431 C24.92065621 45.81949694 21.41933437 45.82716189 17.91796875 45.8359375 C13.75424672 45.84642152 9.59075712 45.8605633 5.4271698 45.89685059 C2.84270142 45.91812201 0.25808648 45.92681875 -2.32646179 45.92053223 C-13.51251697 46.0152218 -24.0669056 47.75003137 -34.01953125 53.0234375 C-34.63183594 53.32443359 -35.24414062 53.62542969 -35.875 53.93554688 C-45.86441391 59.05332669 -54.26869368 66.26009339 -62.11035156 74.1953125 C-62.95902802 75.04194458 -63.80770447 75.88857666 -64.68209839 76.76086426 C-66.97664148 79.05294001 -69.26444654 81.3514745 -71.54910374 83.65339661 C-73.95894495 86.07845368 -76.37706856 88.49522758 -78.79412842 90.91308594 C-82.84696819 94.96959927 -86.89416612 99.03166884 -90.9375 103.09765625 C-96.10723855 108.29630246 -101.28623476 113.48562241 -106.46821976 118.67205811 C-110.95266831 123.16050401 -115.43286154 127.6531907 -119.91237545 132.14656067 C-121.33897953 133.57723602 -122.76614928 135.00734522 -124.19339752 136.43737793 C-126.86363382 139.11452689 -129.53046889 141.79501694 -132.19628906 144.4765625 C-133.36691391 145.64886414 -133.36691391 145.64886414 -134.56118774 146.84484863 C-138.66767151 150.98327128 -142.61736134 155.20263043 -146.41218281 159.62941742 C-148.49060432 162.02215313 -150.70530222 164.25905638 -152.953125 166.4921875 C-153.83291016 167.36875 -154.71269531 168.2453125 -155.61914062 169.1484375 C-156.51439453 170.0353125 -157.40964844 170.9221875 -158.33203125 171.8359375 C-159.25435547 172.75375 -160.17667969 173.6715625 -161.12695312 174.6171875 C-163.38053024 176.85908805 -165.636422 179.0986035 -167.89453125 181.3359375 C-145.0831069 182.11550773 -126.37548952 180.32062968 -108.86279583 164.05491924 C-102.8929556 158.46665007 -97.12195917 152.67636995 -91.35938454 146.87595558 C-89.36532042 144.86890934 -87.36795692 142.8651963 -85.36979675 140.86222839 C-81.14601068 136.62714676 -76.92624921 132.38806948 -72.70703125 128.1484375 C-67.77559336 123.19337629 -62.84250791 118.23997747 -57.90524864 113.29071617 C-55.93493097 111.31390599 -53.96763734 109.33411943 -52.0004425 107.35420227 C-50.80618648 106.15631801 -49.61179225 104.95857152 -48.41723633 103.76098633 C-47.59531548 102.93131599 -47.59531548 102.93131599 -46.75679016 102.08488464 C-45.48820517 100.81611982 -44.19414003 99.5729052 -42.89453125 98.3359375 C-42.56453125 98.3359375 -42.23453125 98.3359375 -41.89453125 98.3359375 C-41.84414348 102.20959415 -41.80835873 106.0831174 -41.78466797 109.95703125 C-41.76996349 111.9037143 -41.74451923 113.85030697 -41.71875 115.796875 C-41.55990612 146.93027475 -52.00252657 173.94450247 -73.24414062 196.66943359 C-81.83623166 205.34541191 -92.12200547 211.73882446 -102.89453125 217.3359375 C-104.26158203 218.05910156 -104.26158203 218.05910156 -105.65625 218.796875 C-120.07424393 225.90888994 -134.36793682 226.92472697 -150.11450195 226.83764648 C-152.09226871 226.84143871 -154.07003279 226.84694614 -156.04779053 226.85401917 C-161.36723805 226.86786133 -166.68635814 226.85688914 -172.00578713 226.84030795 C-177.58704598 226.82637099 -183.16828749 226.83292636 -188.7495575 226.83644104 C-198.10416906 226.83913344 -207.45865156 226.82574129 -216.81323242 226.80249023 C-227.63240787 226.77578537 -238.45136909 226.77416901 -249.27056628 226.7858786 C-259.69518295 226.79664231 -270.11972202 226.79048692 -280.5443325 226.77632332 C-284.97690856 226.77056146 -289.40942788 226.77064751 -293.84200478 226.77538872 C-299.04850092 226.78014827 -304.25476096 226.77009952 -309.46121216 226.74843407 C-311.37406302 226.74285578 -313.28693653 226.74241039 -315.19978905 226.74738693 C-317.80368962 226.75331385 -320.40686165 226.74088587 -323.01069641 226.72361755 C-324.15433866 226.73263262 -324.15433866 226.73263262 -325.3210848 226.74182981 C-328.28847847 226.70586003 -330.38498079 226.67541425 -332.89508343 225.00311375 C-333.89453125 223.3359375 -333.89453125 223.3359375 -333.76953125 220.2734375 C-332.89453125 217.3359375 -332.89453125 217.3359375 -329.89453125 215.3359375 C-328.15072384 214.90842115 -326.38725686 214.55862633 -324.6171875 214.2578125 C-323.5564502 214.06985107 -322.49571289 213.88188965 -321.40283203 213.68823242 C-319.69716064 213.39009644 -319.69716064 213.39009644 -317.95703125 213.0859375 C-269.39978415 204.11972319 -232.3888562 181.14315986 -197.94018555 146.44750977 C-196.66942231 145.17154137 -195.3984088 143.89582217 -194.12716675 142.62033081 C-191.40806045 139.89135029 -188.69043792 137.160904 -185.97391319 134.42935371 C-181.6675882 130.09977812 -177.3562248 125.77524312 -173.04389954 121.4516449 C-160.78799166 109.16245805 -148.53630277 96.86908706 -136.29516602 84.56518555 C-129.52050247 77.75587061 -122.74038795 70.95203209 -115.95429546 64.15410656 C-111.67674499 59.8685146 -107.40580959 55.57647618 -103.13979566 51.2794019 C-100.47158906 48.59505087 -97.79697067 45.91715833 -95.1205864 43.24096298 C-93.89299537 42.01097523 -92.6679354 40.77845454 -91.44579887 39.54304695 C-65.57895577 13.40738652 -37.02279796 0.06491955 0 0 Z " fill="#E6742C" transform="translate(751.89453125,453.6640625)"/>
<path d="M0 0 C5.69853503 3.84748029 9.31993838 8.96099251 11.296875 15.55078125 C12.02590976 22.3044783 11.85522152 28.65602219 8.296875 34.55078125 C0.34909754 43.99160502 -8.60853511 52.61625472 -17.3190918 61.34375 C-18.75617003 62.78710979 -20.19306453 64.23065251 -21.62979126 65.67436218 C-26.30046186 70.36584327 -30.97625869 75.0521979 -35.65234375 79.73828125 C-37.27026787 81.36025907 -38.88816025 82.98226855 -40.5060215 84.60430908 C-48.09814679 92.2154212 -55.69263591 99.82416479 -63.29007405 107.4299736 C-72.03884949 116.18855127 -80.77925111 124.95537734 -89.51276845 133.72916889 C-96.28479964 140.53135073 -103.06448031 147.32584703 -109.84994632 154.11462688 C-113.89479621 158.16182473 -117.93628697 162.21224667 -121.96970177 166.27084351 C-125.75723046 170.08164479 -129.55416118 173.88281988 -133.35847855 177.6768589 C-134.75027531 179.06816032 -136.13866993 180.46287494 -137.52333641 181.86127281 C-139.41787805 183.77354413 -141.32444391 185.67298702 -143.23442078 187.56982422 C-143.77558413 188.12195682 -144.31674748 188.67408941 -144.87430972 189.2429533 C-149.59899881 193.889857 -154.64337073 197.0945021 -161.265625 198.08203125 C-162.4 198.07171875 -163.534375 198.06140625 -164.703125 198.05078125 C-166.4046875 198.06625 -166.4046875 198.06625 -168.140625 198.08203125 C-176.66790469 196.81041937 -182.0707381 191.76393009 -187.95166016 185.80395508 C-188.73322983 185.02778839 -189.5147995 184.2516217 -190.3200531 183.45193481 C-192.88742042 180.89702011 -195.44005969 178.32794328 -197.9921875 175.7578125 C-199.78176257 173.96839252 -201.57200549 172.17964023 -203.36288452 170.39152527 C-207.10964199 166.64615034 -210.84956334 162.89413642 -214.58398438 159.13647461 C-218.88381939 154.81006351 -223.19591415 150.49618139 -227.51492655 146.1889208 C-231.68984949 142.02483064 -235.85612018 137.85216936 -240.01862717 133.6756649 C-241.78112216 131.90867133 -243.54568702 130.14373973 -245.312397 128.38096046 C-247.78683629 125.90945069 -250.25129059 123.42838628 -252.71337891 120.94458008 C-253.43664871 120.22581192 -254.15991852 119.50704376 -254.90510559 118.76649475 C-262.81513033 110.74095533 -268.04863952 103.89996664 -268.16064453 92.43994141 C-268.01084309 85.98303617 -266.06910205 82.15708731 -261.703125 77.55078125 C-261.22359375 77.0403125 -260.7440625 76.52984375 -260.25 76.00390625 C-255.99796362 72.03222392 -251.05359969 69.68416002 -245.25 69.453125 C-235.81844483 70.04621359 -229.3865106 74.25005182 -222.91992188 80.87988281 C-222.29452515 81.50469543 -221.66912842 82.12950806 -221.02478027 82.77325439 C-218.98083989 84.8199589 -216.95139896 86.88041421 -214.921875 88.94140625 C-213.49929078 90.37145877 -212.0758149 91.80062479 -210.65148926 93.22894287 C-206.92066855 96.97497333 -203.20202158 100.7328625 -199.48583984 104.4934082 C-195.68538381 108.33491729 -191.87345732 112.16500725 -188.0625 115.99609375 C-180.59814836 123.50323404 -173.14661643 131.0229611 -165.703125 138.55078125 C-161.72496274 136.9509719 -159.06924264 134.17703768 -156.11958313 131.17410278 C-155.5671524 130.61985308 -155.01472167 130.06560337 -154.44555062 129.49455822 C-152.59474381 127.63533487 -150.75119498 125.76907708 -148.9074707 123.90283203 C-147.58206628 122.5686782 -146.25618256 121.23500037 -144.92985535 119.90176392 C-142.07341376 117.02882601 -139.21996183 114.15296231 -136.36864662 111.27493668 C-131.85694066 106.72187888 -127.33601825 102.1780498 -122.8132782 97.63595581 C-109.95314861 84.71824047 -97.10297987 71.79067391 -84.26782227 58.84814453 C-77.17973611 51.70092287 -70.08267962 44.5627345 -62.97572201 37.43427646 C-58.48048515 32.92442054 -53.99654209 28.40372127 -49.52064383 23.87467599 C-46.7279412 21.05416575 -43.92475027 18.24426378 -41.11851692 15.43722153 C-39.82297973 14.13712871 -38.5317212 12.83275536 -37.2451973 11.52374268 C-26.16572619 0.25856745 -15.69500517 -8.65174974 0 0 Z " fill="#E6732C" transform="translate(624.703125,328.44921875)"/>
<path d="M0 0 C0 0.66 0 1.32 0 2 C-4.72314313 2.77112541 -9.21521178 3.09764874 -14 3 C-9.40655732 0.4480874 -5.21536095 -0.14901031 0 0 Z " fill="#E36319" transform="translate(433,590)"/>
<path d="M0 0 C-1.32 0.33 -2.64 0.66 -4 1 C-4 1.66 -4 2.32 -4 3 C-8.455 3.495 -8.455 3.495 -13 4 C-9.0516245 0.65906688 -5.11813443 -1.70604481 0 0 Z " fill="#E4661D" transform="translate(477,657)"/>
<path d="M0 0 C-2.2010905 2.53125407 -3.72053118 3.3850996 -7 4 C-7.99 4.33 -8.98 4.66 -10 5 C-9 2 -9 2 -6.125 0.25 C-3 -1 -3 -1 0 0 Z " fill="#E4661D" transform="translate(328,249)"/>
</svg>
